<?xml version="1.0" encoding="utf-8"?>
<!-- Generator: Adobe Illustrator 21.1.0, SVG Export Plug-In . SVG Version: 6.00 Build 0)  -->
<svg version="1.1" id="Capa_1" xmlns="http://www.w3.org/2000/svg" xmlns:xlink="http://www.w3.org/1999/xlink" x="0px" y="0px"
	 viewBox="0 0 4304 1659.2" style="enable-background:new 0 0 4304 1659.2;" xml:space="preserve">
<style type="text/css">
	.st0{fill:#BEAF87;}
</style>
<g>
	<g>
		<path class="st0" d="M2281.9,738.3c0,50.6-41.1,91.7-91.7,91.7c-50.6,0-91.7-41.1-91.7-91.7V494.5h-79.2v243.8
			c0,94.2,76.7,170.9,170.9,170.9s170.9-76.7,170.9-170.9V494.5h-79.2V738.3z"/>
		<path class="st0" d="M512.4,573.6c33.9,0,64.8,13.3,87.8,34.9l45.5-65.5c-36-30.3-82.5-48.5-133.2-48.5
			c-114.5,0-207.3,92.8-207.3,207.3S398,909.1,512.5,909.1c50.7,0,97.2-18.2,133.2-48.5L600.2,795c-22.9,21.6-53.8,34.9-87.8,34.9
			c-70.6,0-128.1-57.5-128.1-128.1C384.3,631.1,441.8,573.6,512.4,573.6z"/>
		<polygon class="st0" points="1405.4,773.1 1212.5,494.5 1212.5,494.5 1133.3,494.5 1133.3,909 1212.5,909 1212.5,630.4 
			1405.4,909 1405.4,909 1405.4,909 1484.5,909 1484.5,494.5 1405.4,494.5 		"/>
		<polygon class="st0" points="1589.9,494.5 1589.9,573.6 1712.3,573.6 1712.3,909 1791.4,909 1791.4,573.6 1913.8,573.6 
			1913.8,494.5 		"/>
		<polygon class="st0" points="3773.5,494.5 3773.5,573.6 3816.6,573.6 3816.6,909 3895.8,909 3895.8,494.5 		"/>
		<polygon class="st0" points="751.2,494.5 751.2,909 1027.6,909 1027.6,829.9 830.4,829.9 830.4,741.3 988.8,741.3 988.8,662.2 
			830.4,662.2 830.4,573.6 1027.6,573.6 1027.6,494.5 		"/>
		<path class="st0" d="M2784.7,633.6c0-76.7-62.4-139.2-139.2-139.2h-179V909h79.2V772.8h50.5l94.3,136.2h94.1l-98.5-142.3
			C2743.2,749.3,2784.7,696.2,2784.7,633.6z M2645.6,693.6h-99.8v-120h99.8c33.1,0,60,26.9,60,60
			C2705.6,666.7,2678.7,693.6,2645.6,693.6z"/>
		<polygon class="st0" points="3147.4,494.5 3031.3,662.1 2915.2,494.5 2821.1,494.5 2991.7,740.9 2991.7,909 3070.9,909 
			3070.9,740.9 3241.5,494.5 		"/>
		<path class="st0" d="M3661.4,701.6l2.1-3c14.1-20.9,22.3-46,22.3-73.1c0-10.7-1.3-21-3.7-31c-13.9-57.4-65.7-100.1-127.3-100.1
			c-72.4,0-131,58.7-131,131c0,1.6,0,3.3,0.1,4.9h79.3c-0.1-1.6-0.2-3.2-0.2-4.9c0-28.6,23.3-51.9,51.9-51.9
			c28.6,0,53.2,21.6,51.9,51.9c-0.6,13.3-12.2,33.8-16.7,40.3c-4.4,6.5-168.4,243.2-168.4,243.2h272v-79.2h-120.9L3661.4,701.6z"/>
	</g>
</g>
<g>
	<g>
		<path class="st0" d="M3962.6,839.9c5.8,0,11.4,1.5,16.8,4.4c5.5,3,9.7,7.2,12.8,12.7c3,5.5,4.6,11.2,4.6,17.2
			c0,5.9-1.5,11.6-4.5,17s-7.2,9.7-12.7,12.7c-5.4,3-11.1,4.5-17,4.5s-11.6-1.5-17-4.5s-9.7-7.2-12.7-12.7c-3-5.4-4.5-11.1-4.5-17
			c0-6,1.5-11.7,4.6-17.2s7.3-9.7,12.8-12.7C3951.2,841.4,3956.8,839.9,3962.6,839.9z M3962.6,845.6c-4.8,0-9.5,1.2-14,3.7
			s-8.1,6-10.7,10.6c-2.6,4.6-3.8,9.4-3.8,14.3c0,4.9,1.3,9.7,3.8,14.2s6,8,10.6,10.6c4.5,2.5,9.3,3.8,14.2,3.8s9.7-1.3,14.2-3.8
			s8-6,10.6-10.6c2.5-4.5,3.8-9.2,3.8-14.2s-1.3-9.7-3.8-14.3c-2.6-4.6-6.1-8.1-10.7-10.6C3972,846.8,3967.4,845.6,3962.6,845.6z
			 M3947.6,893.1v-36.8h12.7c4.3,0,7.4,0.3,9.4,1c1.9,0.7,3.5,1.9,4.6,3.6c1.1,1.7,1.7,3.5,1.7,5.4c0,2.7-1,5-2.9,7
			s-4.5,3.1-7.7,3.4c1.3,0.5,2.4,1.2,3.1,1.9c1.5,1.5,3.3,3.9,5.4,7.3l4.5,7.2h-7.3l-3.3-5.8c-2.6-4.6-4.6-7.4-6.2-8.6
			c-1.1-0.9-2.7-1.3-4.8-1.3h-3.5V893L3947.6,893.1L3947.6,893.1z M3953.5,872.4h7.2c3.5,0,5.8-0.5,7.1-1.5s1.9-2.4,1.9-4.1
			c0-1.1-0.3-2.1-0.9-2.9c-0.6-0.9-1.4-1.5-2.5-1.9s-3.1-0.6-6-0.6h-6.8V872.4z"/>
	</g>
</g>
<g>
	<path class="st0" d="M2511.8,1225.9c0-59.3,46.8-100.1,109-100.1c39.9,0,71.3,16.5,88.5,38.1l-31.7,19.3
		c-12.7-15.4-33.2-24.3-56.8-24.3c-40.5,0-70.1,27-70.1,67c0,39.4,28.7,67,70.1,67c24.2,0,45.9-9.4,58.6-27.6l31.1,20.4
		c-19.6,26.5-53.7,40.3-90,40.3C2558,1326,2511.8,1284.6,2511.8,1225.9z"/>
	<path class="st0" d="M2733.4,1252.9c0-42.7,34.4-72.8,80.9-72.8c46.5,0,80.9,29.8,80.9,72.8c0,43.3-34.4,73.1-80.9,73.1
		C2767.9,1326,2733.4,1295.9,2733.4,1252.9z M2859.1,1252.9c0-25.4-18.1-42.7-44.7-42.7c-26.6,0-44.4,17.4-44.4,42.7
		c0,25.6,17.8,42.7,44.4,42.7C2840.9,1295.7,2859.1,1278.6,2859.1,1252.9z"/>
	<path class="st0" d="M2929.7,1115.6h35.3v206.8h-35.3V1115.6z"/>
	<path class="st0" d="M2999.5,1252.9c0-42.7,34.4-72.8,80.9-72.8c46.5,0,80.9,29.8,80.9,72.8c0,43.3-34.4,73.1-80.9,73.1
		C3033.9,1326,2999.5,1295.9,2999.5,1252.9z M3125.1,1252.9c0-25.4-18.1-42.7-44.7-42.7c-26.6,0-44.4,17.4-44.4,42.7
		c0,25.6,17.8,42.7,44.4,42.7C3107,1295.7,3125.1,1278.6,3125.1,1252.9z"/>
	<path class="st0" d="M3436.7,1234.7v87.7h-35v-81.6c0-19.6-11.8-30.6-30.8-30.6s-37.1,11.6-37.1,31.7v80.5h-35v-81.6
		c0-19.3-11.8-30.6-30.5-30.6c-19,0-37.1,11.3-37.1,31.7v80.5h-35.3v-138.7h31.1l2.1,18.8c10-14.1,27.2-22.3,47.4-22.3
		c22,0,39.9,9.7,49.5,25.4c10.9-15.7,30.5-25.4,52.8-25.4C3412.8,1180.1,3436.7,1202.2,3436.7,1234.7z"/>
	<path class="st0" d="M3634.5,1252.6c0,43.3-33.5,73.4-74.3,73.4c-21.7,0-39.6-8.5-50.1-22.9l-1.8,19.3h-31.4v-206.8h35.3v82.5
		c10.6-11.3,26.9-17.9,46.8-17.9C3601,1180.1,3634.5,1209.9,3634.5,1252.6z M3598.2,1252.9c0-25.4-17.8-42.7-44.4-42.7
		s-44.7,17.1-44.7,42.7c0,26.2,18.4,42.7,44.7,42.7C3580.4,1295.7,3598.2,1278.6,3598.2,1252.9z"/>
	<path class="st0" d="M3666.2,1144.3c0-11,10-20.1,22.3-20.1c12.1,0,22,9.1,22,20.1c0,11.3-10,20.4-22,20.4
		C3676.1,1164.7,3666.2,1155.6,3666.2,1144.3z M3706,1322.4h-35v-138.7h35V1322.4z"/>
	<path class="st0" d="M3887.8,1238.3v84.1h-31.1l-2.1-19.9c-12.1,15.4-33.5,23.4-53.4,23.4c-27.2,0-53.1-15.2-53.1-43.8
		c0-31.7,31.7-44.1,61.3-44.1c13,0,29,1.7,43.5,5.5v-4.4c0-20.1-12.1-30.1-35.6-30.1c-15.4,0-32.3,4.4-45.9,13.8l-13.9-23.4
		c15.7-11,39-19.3,66.1-19.3C3865.2,1180.1,3887.8,1199.4,3887.8,1238.3z M3852.8,1265.9c-12.4-3.3-25.7-5-37.1-5
		c-17.8,0-31.7,5.5-31.7,19.6c0,11.9,10.3,18.2,25.7,18.2C3830.7,1298.7,3852.8,1286,3852.8,1265.9z"/>
</g>
</svg>
